<svg width="251" height="41" viewBox="0 0 251 41" fill="none" xmlns="http://www.w3.org/2000/svg">
<g clip-path="url(#clip0_0_1)">
<path d="M4.3634 10.2139C35.0739 11.9633 65.5996 13.1283 96.3865 13.0535C145.156 12.935 193.688 9.72577 242.362 7.16402C262.507 6.10372 202.308 12.1122 182.205 13.7897C127.894 18.3214 73.6314 22.8123 19.613 30.1961C18.9513 30.2865 8.27067 31.1734 15.6165 31.9839C28.6703 33.4244 42.0634 32.9091 55.1602 32.9305C106.642 33.0143 158.179 33.2486 209.549 29.3547C211.037 29.2419 229.042 29.0229 218.698 27.4617C215.77 27.0196 212.716 27.2513 209.759 27.2513" stroke="#FF0000" stroke-width="3" stroke-linecap="round"/>
</g>
<defs>
<clipPath id="clip0_0_1">
<rect width="246" height="30" fill="white" transform="translate(2 5)"/>
</clipPath>
</defs>
</svg>
